PathFileType  4	(X/Y/Z) C:\Users\antoi\Documents\MyRepositories\mobilecap\ResultsAnalysis
DataRate	CameraRate	NumFrames	NumMarkers	Units	OrigDataRate	OrigDataStartFrame	OrigNumFrames
100.0	100.0	4	51	mm	100.0	20	153
Frame#	Time	r_knee			r_shank_antsup			r_ankle			r_calc			r_5meta			r_toe			L_knee			L_shank_antsup			L_ankle			L_calc			L_5meta			L_toe			r_sh2			r_sh3			r_sh4			L_sh2			L_sh3			r_thigh1			r_thigh2			r_thigh3			r_thigh4			r_thigh5			L_thigh1			L_thigh2			L_thigh3			L_thigh4			r.ASIS			r.PSIS			L.ASIS			L.PSIS			C7			R_Shoulder			L_Shoulder			R_Sternum			L_Sternum			R_humerus			R_elbow_med			R_elbow_lat			R_forearm			R_wrist_radius			R_wrist_ulna			L_humerus			L_elbow_med			L_elbow_lat			L_forearm			L_wrist_radius			L_wrist_ulna			R_HJC			L_HJC			R_HJC_reg			L_HJC_reg			
		X1	Y1	Z1	X2	Y2	Z2	X3	Y3	Z3	X4	Y4	Z4	X5	Y5	Z5	X6	Y6	Z6	X7	Y7	Z7	X8	Y8	Z8	X9	Y9	Z9	X10	Y10	Z10	X11	Y11	Z11	X12	Y12	Z12	X13	Y13	Z13	X14	Y14	Z14	X15	Y15	Z15	X16	Y16	Z16	X17	Y17	Z17	X18	Y18	Z18	X19	Y19	Z19	X20	Y20	Z20	X21	Y21	Z21	X22	Y22	Z22	X23	Y23	Z23	X24	Y24	Z24	X25	Y25	Z25	X26	Y26	Z26	X27	Y27	Z27	X28	Y28	Z28	X29	Y29	Z29	X30	Y30	Z30	X31	Y31	Z31	X32	Y32	Z32	X33	Y33	Z33	X34	Y34	Z34	X35	Y35	Z35	X36	Y36	Z36	X37	Y37	Z37	X38	Y38	Z38	X39	Y39	Z39	X40	Y40	Z40	X41	Y41	Z41	X42	Y42	Z42	X43	Y43	Z43	X44	Y44	Z44	X45	Y45	Z45	X46	Y46	Z46	X47	Y47	Z47	X48	Y48	Z48	X49	Y49	Z49	X50	Y50	Z50	X51	Y51	Z51	

20	0.19000000	313.47521	602.22425	-79.91109	340.82141	451.60122	-96.16517	262.55612	95.81623	-125.24252	209.94779	74.37113	-191.54973	400.71569	39.79985	-96.02799	442.19421	66.43913	-144.22784	297.45698	603.36874	-393.22159	208.64279	428.45518	-364.54928	-71.08276	297.87280	-330.20382	-114.37205	328.23520	-254.21017	-76.72344	138.55584	-372.16333	-19.45096	116.31230	-326.11236	335.23018	339.70104	-110.80672	277.50168	446.55439	-53.36492	268.50768	333.70371	-60.14954	160.15491	487.35310	-408.21385	68.72483	418.49983	-382.04923	293.14162	891.12181	-28.85083	330.09483	785.96803	-38.95512	276.60559	744.47852	-34.40507	186.78304	861.20398	-53.32376	222.41525	748.04250	-54.72887	307.35590	902.48989	-396.62686	335.62902	771.36703	-402.12012	198.64514	882.94678	-393.77062	228.42618	749.96366	-402.29972	291.28511	1170.50649	-73.95457	95.45826	1192.67233	-150.26202	265.63870	1164.58725	-351.57198	88.32889	1193.18144	-243.13839	136.88839	1683.79507	-173.55576	210.79639	1622.16650	-6.33561	193.10013	1668.58968	-354.07169	280.69583	1595.83315	-156.89084	280.57120	1602.64549	-213.36097	171.38435	1351.11245	49.37193	70.61010	1248.48300	6.62430	82.02944	1265.62487	79.05553	180.56512	1072.96416	92.78610	217.01108	983.02949	84.64357	188.38340	979.59323	108.90777	187.66467	1377.45916	-433.78563	96.28098	1302.71277	-390.92614	120.57286	1301.87226	-463.31087	216.00377	1117.89648	-489.47016	250.35727	1044.89060	-481.13448	226.00692	1044.96336	-506.90865	213.69708	1071.59819	-106.94368	190.90285	1071.34073	-303.10068	220.57886	1079.33956	-109.18702	206.49295	1080.34557	-292.69160	
21	0.20000000	317.02896	602.26093	-79.41955	343.07487	451.42083	-95.61308	262.83740	95.81826	-125.29758	210.12842	74.68540	-191.51055	400.77592	39.58831	-95.91822	442.38868	66.07941	-144.09963	317.64450	608.20038	-393.52665	232.14261	431.34093	-365.48395	-45.09081	295.39533	-331.31632	-89.54414	324.25277	-255.28332	-46.01623	136.06204	-373.86216	12.07994	115.39323	-327.82811	336.83258	339.61588	-110.37227	279.63869	446.80182	-53.06202	269.83840	334.00540	-59.99024	182.62081	489.70603	-408.81081	92.58841	418.95048	-382.83345	300.72622	891.61204	-28.34700	336.53079	785.90601	-38.60024	282.36009	745.13829	-33.66133	193.87289	862.94339	-52.33196	228.19228	749.35540	-53.80220	321.45944	907.31572	-396.37298	352.60645	776.85086	-401.98432	213.21073	885.62298	-394.21706	245.87272	753.17201	-403.13875	301.26093	1172.01062	-73.09866	105.58931	1194.22283	-149.11502	275.25356	1166.86251	-350.74197	98.16131	1194.75397	-242.02003	146.99865	1685.52057	-172.43209	221.82989	1624.01054	-5.65357	202.09006	1670.43328	-353.22062	290.90752	1597.54967	-156.54311	290.55270	1604.33643	-213.01788	183.43655	1352.91763	50.49411	82.50068	1250.02943	8.56060	94.40079	1267.22936	80.96979	194.20683	1075.17727	94.18070	230.82800	985.56211	85.61701	202.65564	981.90823	110.33130	196.23816	1379.23939	-432.87625	105.11275	1304.54529	-389.38581	128.97765	1303.62181	-462.01540	224.95771	1119.95806	-488.69464	259.77451	1047.16114	-480.53581	235.19106	1047.06494	-506.01592	223.87483	1073.10641	-106.28314	200.80447	1073.33395	-302.40727	230.71614	1081.21161	-108.16813	216.04564	1082.26054	-291.65609	
22	0.21000000	320.35672	602.28506	-78.97281	345.13547	451.23533	-95.08849	263.09475	95.82420	-125.42055	210.25317	74.97682	-191.51708	400.83053	39.40569	-95.82192	442.57703	65.77752	-143.99118	337.24080	612.97437	-393.67660	255.53345	433.79016	-366.13397	-18.65147	291.75252	-332.47602	-64.30593	319.03044	-256.47915	-14.47952	132.59349	-375.46630	44.35985	113.68114	-329.37632	338.29636	339.52436	-109.96944	281.55361	447.03783	-52.85515	270.97972	334.30351	-59.92405	205.00684	491.30229	-409.49401	116.54223	418.47076	-383.68556	308.09185	892.02272	-27.87225	342.72038	785.76726	-38.30421	287.93464	745.80020	-33.02899	200.77952	864.61791	-51.45661	233.75993	750.60819	-52.99618	335.43739	912.02093	-395.96687	369.29629	782.23335	-401.66398	227.66686	888.31782	-394.78932	263.09543	756.43252	-404.03747	311.10166	1173.37966	-72.24128	115.63141	1195.66733	-148.01203	284.77844	1169.01022	-349.93473	107.93442	1196.24464	-240.94225	157.02765	1687.13961	-171.37364	232.71322	1625.79733	-5.00661	211.10268	1672.18406	-352.39306	301.04840	1599.17566	-156.19416	300.46522	1605.92800	-212.67674	195.35739	1354.66777	51.59000	94.32712	1251.48036	10.44014	106.65747	1268.76497	82.82905	207.82043	1077.38112	95.56200	245.10302	988.28131	86.62483	216.90463	984.21345	111.75999	204.84010	1380.93073	-431.94949	113.84161	1306.34435	-387.80835	137.35345	1305.28410	-460.71409	233.88788	1121.94985	-487.91515	269.18488	1049.33709	-479.95802	244.35805	1049.07972	-505.10833	233.91703	1074.49298	-105.64884	210.60410	1075.21750	-301.74270	240.71091	1082.92182	-107.19461	225.51299	1084.06157	-290.68376	
23	0.22000000	323.49557	602.30041	-78.55155	347.07683	451.05729	-94.60700	263.33267	95.86074	-125.57087	210.32732	75.24000	-191.55657	400.88310	39.24596	-95.73111	442.75790	65.51990	-143.89521	356.20758	617.64624	-393.67322	278.73109	435.90561	-366.53185	8.21153	287.06251	-333.65529	-38.73236	312.55218	-257.76444	18.06945	128.33035	-377.04068	77.54762	111.43225	-330.82258	339.67430	339.42583	-109.60391	283.35211	447.25468	-52.68138	272.05531	334.58794	-59.87703	227.21836	492.26026	-410.21737	140.49248	417.19890	-384.55993	315.23966	892.35772	-27.42971	348.65106	785.58864	-38.00664	293.31170	746.44982	-32.49878	207.52178	866.22146	-50.71646	239.14128	751.79584	-52.32011	349.25516	916.56390	-395.41278	385.64896	787.45218	-401.17434	241.98419	890.96893	-395.41697	280.04128	759.69542	-404.92129	320.86216	1174.59066	-71.41005	125.57693	1197.00683	-146.97299	294.22569	1170.99962	-349.15420	117.64959	1197.64867	-239.91930	166.99390	1688.62988	-170.38526	243.45660	1627.49392	-4.39211	220.16005	1673.80220	-351.59656	311.11903	1600.68960	-155.84104	310.30658	1607.40197	-212.33309	207.13289	1356.33583	52.68141	106.07622	1252.80966	12.27614	118.78183	1270.21201	84.63886	221.39674	1079.55731	96.93183	259.72254	991.09066	87.68898	231.14084	986.49102	113.18831	213.47979	1382.50130	-431.02425	122.50407	1308.05113	-386.22513	145.70694	1306.83037	-459.42324	242.82069	1123.85042	-487.13543	278.60538	1051.39626	-479.40598	253.52275	1050.97451	-504.21024	243.83389	1075.74552	-105.05326	220.29947	1076.97122	-301.11797	250.56893	1084.46381	-106.28643	234.91819	1085.73081	-289.78347	
